<svg width="16" height="16" viewBox="0 0 16 16" fill="none" xmlns="http://www.w3.org/2000/svg">
<rect x="5" y="3" width="1" height="2" fill="#FF8FF8"/>
<rect x="9" y="3" width="2" height="1" fill="#FF8FF8"/>
<rect x="5" y="6" width="1" height="1" fill="#FF8FF8"/>
<rect x="6" y="3" width="1" height="1" fill="#FF8FF8"/>
<rect x="4" y="3" width="1" height="9" fill="#120621"/>
<rect x="5" y="12" width="6" height="1" fill="#120621"/>
<rect x="7" y="3" width="1" height="2" fill="#120621"/>
<rect x="8" y="3" width="1" height="4" fill="#120621"/>
<rect x="8" y="10" width="1" height="2" fill="#120621"/>
<rect x="7" y="9" width="1" height="3" fill="#120621"/>
<rect width="2" height="1" transform="matrix(1 0 0 -1 5 3)" fill="#120621"/>
<rect x="9" y="2" width="2" height="1" fill="#120621"/>
<rect x="6" y="13" width="2" height="1" fill="#120621"/>
<rect x="10" y="13" width="2" height="1" fill="#120621"/>
<rect x="11" y="3" width="1" height="10" fill="#120621"/>
<rect x="12" y="4" width="1" height="9" fill="#120621"/>
<rect x="7" y="5" width="1" height="4" fill="#7FFFE1"/>
<rect x="8" y="7" width="1" height="3" fill="#7FFFE1"/>
<rect x="9" y="4" width="2" height="5" fill="#7FFFE1"/>
<rect x="6" y="4" width="1" height="6" fill="#7FFFE1"/>
<rect x="5" y="10" width="1" height="1" fill="#7FFFE1"/>
<rect x="5" y="11" width="1" height="1" fill="#9747FF"/>
<rect x="9" y="11" width="1" height="1" fill="#9747FF"/>
<rect x="5" y="9" width="1" height="1" fill="#FF1CF0"/>
<rect x="6" y="10" width="1" height="1" fill="#FF1CF0"/>
<rect x="9" y="9" width="1" height="1" fill="#FF1CF0"/>
<rect x="9" y="9" width="1" height="1" fill="#FF1CF0"/>
<rect x="10" y="10" width="1" height="1" fill="#FF1CF0"/>
<rect x="10" y="11" width="1" height="1" fill="#7FFFE1"/>
<rect x="10" y="9" width="1" height="1" fill="#7FFFE1"/>
<rect x="9" y="10" width="1" height="1" fill="#7FFFE1"/>
<rect x="6" y="11" width="1" height="1" fill="#7FFFE1"/>
<rect x="5" y="7" width="1" height="2" fill="#7FFFE1"/>
<rect x="5" y="5" width="1" height="1" fill="#7FFFE1"/>
</svg>
